<svg width="225" height="131" viewBox="0 0 225 131" fill="none" xmlns="http://www.w3.org/2000/svg">
<path d="M12.3856 121.72H23.0656V127H6.86563V99H12.3856V121.72ZM28.5216 104.6C27.6682 104.6 26.9216 104.293 26.2816 103.68C25.6682 103.04 25.3616 102.293 25.3616 101.44C25.3616 100.587 25.6682 99.84 26.2816 99.2C26.9216 98.56 27.6682 98.24 28.5216 98.24C29.4016 98.24 30.1482 98.56 30.7616 99.2C31.4016 99.84 31.7216 100.587 31.7216 101.44C31.7216 102.293 31.4016 103.04 30.7616 103.68C30.1482 104.293 29.4016 104.6 28.5216 104.6ZM25.9616 127V107H31.1216V127H25.9616ZM46.6044 103.4C43.7777 103.187 42.3644 104.32 42.3644 106.8V107H46.6044V111.96H42.3644V127H37.2044V111.96H34.3244V107H37.2044V106.8C37.2044 103.973 37.991 101.827 39.5644 100.36C41.1377 98.8933 43.4844 98.2533 46.6044 98.44V103.4ZM52.5872 119.12C53.2805 121.627 55.1605 122.88 58.2272 122.88C60.2005 122.88 61.6939 122.213 62.7072 120.88L66.8672 123.28C64.8939 126.133 61.9872 127.56 58.1472 127.56C54.8405 127.56 52.1872 126.56 50.1872 124.56C48.1872 122.56 47.1872 120.04 47.1872 117C47.1872 113.987 48.1739 111.48 50.1472 109.48C52.1205 107.453 54.6539 106.44 57.7472 106.44C60.6805 106.44 63.0939 107.453 64.9872 109.48C66.9072 111.507 67.8672 114.013 67.8672 117C67.8672 117.667 67.8005 118.373 67.6672 119.12H52.5872ZM52.5072 115.12H62.7072C62.4139 113.76 61.8005 112.747 60.8672 112.08C59.9605 111.413 58.9205 111.08 57.7472 111.08C56.3605 111.08 55.2139 111.44 54.3072 112.16C53.4005 112.853 52.8005 113.84 52.5072 115.12ZM81.1094 127.48C78.5494 127.48 76.3494 126.88 74.5094 125.68C72.696 124.453 71.4294 122.773 70.7094 120.64L73.1094 119.24C73.616 120.973 74.5494 122.333 75.9094 123.32C77.2694 124.28 79.016 124.76 81.1494 124.76C83.2294 124.76 84.8427 124.307 85.9894 123.4C87.1627 122.467 87.7494 121.24 87.7494 119.72C87.7494 118.253 87.216 117.147 86.1494 116.4C85.0827 115.653 83.3227 114.88 80.8694 114.08C77.9627 113.12 76.0427 112.347 75.1094 111.76C72.976 110.48 71.9094 108.627 71.9094 106.2C71.9094 103.827 72.736 101.96 74.3894 100.6C76.0427 99.2133 78.0827 98.52 80.5094 98.52C82.696 98.52 84.5894 99.0933 86.1894 100.24C87.7894 101.36 88.976 102.8 89.7494 104.56L87.3894 105.88C86.1094 102.787 83.816 101.24 80.5094 101.24C78.776 101.24 77.376 101.667 76.3094 102.52C75.2427 103.373 74.7094 104.56 74.7094 106.08C74.7094 107.467 75.1894 108.507 76.1494 109.2C77.1094 109.893 78.696 110.6 80.9094 111.32C81.9227 111.667 82.6427 111.92 83.0694 112.08C83.5227 112.213 84.1627 112.453 84.9894 112.8C85.8427 113.12 86.4694 113.413 86.8694 113.68C87.2694 113.92 87.7494 114.267 88.3094 114.72C88.896 115.147 89.3094 115.587 89.5494 116.04C89.816 116.467 90.0427 117 90.2294 117.64C90.4427 118.253 90.5494 118.92 90.5494 119.64C90.5494 122.013 89.6827 123.92 87.9494 125.36C86.216 126.773 83.936 127.48 81.1094 127.48ZM104.587 106.52C107.547 106.52 109.934 107.573 111.747 109.68C113.587 111.76 114.507 114.227 114.507 117.08C114.507 117.373 114.48 117.787 114.427 118.32H96.8669C97.1335 120.347 97.9869 121.96 99.4269 123.16C100.894 124.333 102.694 124.92 104.827 124.92C106.347 124.92 107.654 124.613 108.747 124C109.867 123.36 110.707 122.533 111.267 121.52L113.587 122.88C112.707 124.293 111.507 125.413 109.987 126.24C108.467 127.067 106.734 127.48 104.787 127.48C101.64 127.48 99.0802 126.493 97.1069 124.52C95.1335 122.547 94.1469 120.04 94.1469 117C94.1469 114.013 95.1202 111.52 97.0669 109.52C99.0135 107.52 101.52 106.52 104.587 106.52ZM104.587 109.08C102.507 109.08 100.76 109.707 99.3469 110.96C97.9602 112.187 97.1335 113.787 96.8669 115.76H111.787C111.52 113.653 110.707 112.013 109.347 110.84C107.987 109.667 106.4 109.08 104.587 109.08ZM121.346 110.32C122.573 107.893 124.68 106.68 127.666 106.68V109.24C125.853 109.24 124.346 109.773 123.146 110.84C121.946 111.907 121.346 113.587 121.346 115.88V127H118.706V107H121.346V110.32ZM145.684 107H148.484L140.284 127H137.084L128.884 107H131.684L138.684 124.24L145.684 107ZM154.355 102.2C153.982 102.573 153.528 102.76 152.995 102.76C152.462 102.76 152.008 102.573 151.635 102.2C151.262 101.827 151.075 101.373 151.075 100.84C151.075 100.307 151.262 99.8533 151.635 99.48C152.008 99.1067 152.462 98.92 152.995 98.92C153.528 98.92 153.982 99.1067 154.355 99.48C154.728 99.8533 154.915 100.307 154.915 100.84C154.915 101.373 154.728 101.827 154.355 102.2ZM151.675 127V107H154.315V127H151.675ZM169.237 127.48C166.224 127.48 163.717 126.48 161.717 124.48C159.717 122.453 158.717 119.96 158.717 117C158.717 114.04 159.717 111.56 161.717 109.56C163.717 107.533 166.224 106.52 169.237 106.52C171.211 106.52 172.984 107 174.557 107.96C176.131 108.893 177.277 110.16 177.997 111.76L175.837 113C175.304 111.8 174.437 110.853 173.237 110.16C172.064 109.44 170.731 109.08 169.237 109.08C167.024 109.08 165.157 109.853 163.637 111.4C162.117 112.92 161.357 114.787 161.357 117C161.357 119.213 162.117 121.093 163.637 122.64C165.157 124.16 167.024 124.92 169.237 124.92C170.731 124.92 172.064 124.573 173.237 123.88C174.411 123.16 175.331 122.2 175.997 121L178.197 122.28C177.371 123.88 176.157 125.147 174.557 126.08C172.957 127.013 171.184 127.48 169.237 127.48ZM191.032 106.52C193.992 106.52 196.379 107.573 198.192 109.68C200.032 111.76 200.952 114.227 200.952 117.08C200.952 117.373 200.926 117.787 200.872 118.32H183.312C183.579 120.347 184.432 121.96 185.872 123.16C187.339 124.333 189.139 124.92 191.272 124.92C192.792 124.92 194.099 124.613 195.192 124C196.312 123.36 197.152 122.533 197.712 121.52L200.032 122.88C199.152 124.293 197.952 125.413 196.432 126.24C194.912 127.067 193.179 127.48 191.232 127.48C188.086 127.48 185.526 126.493 183.552 124.52C181.579 122.547 180.592 120.04 180.592 117C180.592 114.013 181.566 111.52 183.512 109.52C185.459 107.52 187.966 106.52 191.032 106.52ZM191.032 109.08C188.952 109.08 187.206 109.707 185.792 110.96C184.406 112.187 183.579 113.787 183.312 115.76H198.232C197.966 113.653 197.152 112.013 195.792 110.84C194.432 109.667 192.846 109.08 191.032 109.08ZM206.45 112.24C206.45 113.147 206.85 113.867 207.65 114.4C208.45 114.933 209.424 115.347 210.57 115.64C211.717 115.933 212.864 116.267 214.01 116.64C215.157 116.987 216.13 117.587 216.93 118.44C217.73 119.267 218.13 120.36 218.13 121.72C218.13 123.427 217.45 124.813 216.09 125.88C214.757 126.947 213.024 127.48 210.89 127.48C208.97 127.48 207.33 127.053 205.97 126.2C204.637 125.347 203.704 124.24 203.17 122.88L205.41 121.56C205.784 122.6 206.45 123.427 207.41 124.04C208.397 124.627 209.557 124.92 210.89 124.92C212.197 124.92 213.29 124.667 214.17 124.16C215.05 123.627 215.49 122.813 215.49 121.72C215.49 120.813 215.09 120.093 214.29 119.56C213.49 119.027 212.517 118.613 211.37 118.32C210.224 118.027 209.077 117.707 207.93 117.36C206.784 116.987 205.81 116.387 205.01 115.56C204.21 114.707 203.81 113.6 203.81 112.24C203.81 110.613 204.45 109.253 205.73 108.16C207.037 107.067 208.677 106.52 210.65 106.52C212.277 106.52 213.704 106.893 214.93 107.64C216.157 108.36 217.064 109.347 217.65 110.6L215.45 111.88C214.677 110.013 213.077 109.08 210.65 109.08C209.504 109.08 208.517 109.36 207.69 109.92C206.864 110.453 206.45 111.227 206.45 112.24Z" fill="#141414"/>
<path d="M109.293 16.1922C105.946 16.7172 102.944 18.8664 101.418 21.8523C100.663 23.3289 100.352 24.625 100.237 26.8234C100.122 29.0219 100.319 30.0555 101.008 30.7773C101.402 31.2039 101.5 31.4828 101.648 32.7625C101.959 35.3547 102.78 37.1594 104.47 38.9805L105.437 40.0141V41.2445C105.437 42.1797 105.372 42.557 105.159 42.8195C104.995 43 103.173 43.9023 101.09 44.8211C96.775 46.7242 95.7742 47.3313 94.9211 48.5781C93.6906 50.3664 93.7234 50.1039 93.6578 59.7344C93.625 65.5258 93.6578 68.5445 93.7727 68.9383C94.0844 69.9555 95.4297 70.1687 95.9055 69.2664C96.0203 69.0531 96.0859 66.1328 96.0859 60.4891C96.0859 55.8297 96.1516 52.0234 96.2172 52.0234C96.4141 52.0234 99.6133 55.3211 99.8758 55.7969C100.056 56.125 100.122 57.5688 100.187 62.6547L100.27 69.1188L100.745 69.5289C101.254 69.9719 101.828 69.9391 102.37 69.4633C102.632 69.2172 102.648 68.6758 102.648 62.6711C102.648 54.4352 102.862 55.1898 99.6461 51.9086C97.3656 49.5789 97.3328 49.5461 97.6609 49.2344C97.9562 48.9227 105.159 45.625 105.52 45.625C105.602 45.625 106.816 46.757 108.177 48.1188L110.671 50.6289L110.72 59.8656L110.77 69.1188L111.229 69.5125C111.475 69.7258 111.836 69.9062 112 69.9062C112.164 69.9062 112.525 69.7258 112.771 69.5125L113.23 69.1188L113.28 59.8656L113.329 50.6289L115.823 48.1188C117.184 46.757 118.398 45.625 118.48 45.625C118.841 45.625 126.044 48.9227 126.339 49.2344C126.667 49.5461 126.634 49.5789 124.354 51.9086C121.138 55.1898 121.352 54.4352 121.352 62.6711C121.352 68.6758 121.368 69.2172 121.647 69.4633C122.172 69.9391 122.746 69.9719 123.255 69.5289L123.73 69.1188L123.812 62.6547C123.878 57.5688 123.944 56.125 124.124 55.7969C124.387 55.3211 127.586 52.0234 127.783 52.0234C127.848 52.0234 127.914 55.8297 127.914 60.4891C127.914 66.1328 127.98 69.0531 128.095 69.2664C128.57 70.1687 129.916 69.9555 130.227 68.9383C130.342 68.5445 130.375 65.5258 130.342 59.7344C130.277 50.1039 130.309 50.3664 129.079 48.5781C128.226 47.3313 127.225 46.7242 122.91 44.8211C120.843 43.9023 119.005 43 118.858 42.8195C118.628 42.557 118.562 42.1797 118.562 41.2445V40.0141L119.596 38.8984C120.745 37.6516 121.696 35.9453 122.09 34.3867C122.237 33.8453 122.385 32.4016 122.451 31.1875C122.533 29.2844 122.598 28.9398 122.861 28.7594C123.452 28.3328 123.714 27.5617 123.698 26.2656C123.632 22.5086 121.368 18.9484 117.972 17.2586C116.184 16.3727 115.412 16.225 112.492 16.1758C110.999 16.143 109.572 16.1594 109.293 16.1922ZM115.839 19.0305C118.923 20.1297 120.843 22.6234 121.27 26.0359L121.384 26.8891L119.941 27.0859C118.218 27.332 114.773 27.2172 113.542 26.8727C112.18 26.4953 110.671 25.7406 109.539 24.8875C108.866 24.3789 108.309 24.0836 108.03 24.0836C107.373 24.0836 106.914 24.5594 106.914 25.2484C106.914 25.7406 107.045 25.9539 107.751 26.6102C108.735 27.5125 111.081 28.7266 112.82 29.2352C113.805 29.5141 114.625 29.5961 117.004 29.6617L119.957 29.7273L119.941 31.4336C119.891 34.0586 119.219 35.7812 117.578 37.4219C115.987 39.0133 114.264 39.7188 112 39.7188C109.736 39.7188 108.013 39.0133 106.422 37.4219C105.044 36.0438 104.273 34.3867 104.043 32.2867C103.945 31.3516 103.945 31.3516 104.47 31.0563C104.748 30.9086 105.339 30.4984 105.782 30.1539C106.471 29.6289 106.586 29.4648 106.586 28.9727C106.586 28.2672 106.11 27.7422 105.487 27.7422C105.224 27.7422 104.601 28.0211 104.059 28.3984C102.583 29.3992 102.583 29.3992 102.698 27.1188C102.747 26.0688 102.911 24.7891 103.059 24.2969C103.797 21.8523 105.88 19.7523 108.309 18.9977C109.588 18.5875 109.785 18.5711 112.41 18.6367C114.412 18.6695 115.052 18.7352 115.839 19.0305ZM109.244 41.8516C110.048 42.0813 110.934 42.1797 112 42.1797C113.066 42.1797 113.952 42.0813 114.756 41.8516C115.396 41.6711 115.97 41.5234 116.02 41.5234C116.069 41.5234 116.102 41.8023 116.102 42.1633C116.102 42.5078 116.2 43.0492 116.331 43.3609L116.577 43.9188L114.28 46.2156L112 48.4961L109.72 46.2156L107.423 43.9188L107.669 43.3609C107.8 43.0492 107.898 42.5078 107.898 42.1633C107.898 41.8023 107.931 41.5234 107.98 41.5234C108.03 41.5234 108.604 41.6711 109.244 41.8516Z" fill="#02D1AC"/>
<path d="M82.0258 22.8203C80.4672 23.1484 79.1055 24.2476 78.3836 25.7734C78.0391 26.5117 77.9571 26.9383 77.9571 28.0703L77.9407 29.4648L76.7102 30.6953C74.5774 32.8445 73.9375 34.6328 73.9375 38.4062C73.9375 42.1633 74.5774 43.968 76.6774 46.1008L77.8751 47.2984V48.8078C77.8751 49.907 77.8094 50.4156 77.6126 50.6781C77.4813 50.875 76.2016 51.6297 74.7907 52.3515C71.9196 53.7953 71.1813 54.4023 70.5086 55.7969L70.0821 56.6992L70.0329 62.6875C70 65.9851 70.0329 68.8398 70.0821 69.0367C70.1313 69.25 70.3938 69.5289 70.6727 69.6765C71.0993 69.8898 71.2633 69.8898 71.6571 69.7258C71.936 69.6273 72.2149 69.3976 72.2969 69.2336C72.3954 69.0695 72.461 66.7562 72.461 63.7211V58.5203L73.6258 59.6523C74.2657 60.2922 74.8891 61.0304 75.0204 61.3258C75.2008 61.7195 75.25 62.7203 75.25 65.2961C75.25 67.5109 75.3157 68.889 75.4305 69.1515C75.8079 69.9883 77.1204 70.0539 77.5305 69.2664C77.6454 69.0695 77.711 67.5437 77.711 65.2469C77.711 60.3906 77.6946 60.3578 75.2008 57.7984C74.1016 56.6992 73.4454 55.8953 73.5438 55.8133C73.6258 55.7476 74.8563 55.0914 76.2672 54.3695L78.843 53.057L80.3196 54.55L81.8126 56.0429V62.3922C81.8126 66.7562 81.8782 68.8726 81.993 69.1515C82.3704 69.9883 83.6829 70.0539 84.093 69.2664C84.2079 69.0531 84.2735 66.7234 84.2735 62.4906V56.0429L85.7665 54.55L87.2594 53.0406L88.4735 53.6148C89.5727 54.1398 89.704 54.1726 90.1305 53.9594C90.3766 53.8445 90.6555 53.5492 90.7376 53.3195C91.0001 52.5484 90.754 52.1219 89.6547 51.5148C89.0969 51.2031 88.5391 50.7765 88.4243 50.5469C88.3094 50.3172 88.211 49.5461 88.211 48.7586V47.3969L89.343 46.2812C90.1633 45.4609 90.6719 44.7719 91.1313 43.8367C92.0501 41.9992 92.1977 41.1625 92.1157 37.8484C92.0501 35.207 92.0172 34.9773 91.5743 33.8453C91.0001 32.4179 89.7696 30.7281 88.7852 30.0226L88.0797 29.514L88.1618 28.3164C88.2766 26.8398 87.9485 25.7734 87.0626 24.6414C85.9633 23.2469 83.7813 22.4594 82.0258 22.8203ZM84.5196 25.6094C85.1594 26.0031 85.7501 27.0531 85.7501 27.7914V28.3656L85.0774 28.2179C84.1586 28.0047 82.7805 27.9719 81.4516 28.1359L80.336 28.2672V27.8242C80.336 26.8398 81.2711 25.5929 82.2391 25.2812C82.879 25.0844 83.8961 25.232 84.5196 25.6094ZM84.9297 30.7281C85.7336 30.9742 86.8985 31.5976 87.4235 32.057C88.7196 33.2547 89.6876 35.2726 89.6876 36.8476C89.6876 37.6351 89.6547 37.6515 87.9977 37.8484C86.029 38.0781 83.6008 37.1594 81.9274 35.5351C80.7133 34.3539 80.2376 34.3211 79.0071 35.3711C78.1704 36.0765 76.579 36.9953 76.4313 36.864C76.3985 36.8148 76.4477 36.3883 76.5626 35.8797C77.3665 31.9914 81.2219 29.6289 84.9297 30.7281ZM81.3204 38.2586C83.0594 39.5547 84.6344 40.1453 86.8165 40.3094C87.5383 40.3586 88.4571 40.3258 88.8672 40.2437C89.261 40.1453 89.6219 40.0961 89.6711 40.1453C89.8188 40.2765 89.3266 42.032 88.9329 42.7867C87.768 44.9851 85.5532 46.2976 83.043 46.2976C79.6141 46.2812 76.9235 43.8367 76.4805 40.3586L76.3657 39.4562L77.2516 39.1773C77.7438 39.0297 78.6133 38.6031 79.1876 38.2586C79.7782 37.8976 80.2868 37.6023 80.336 37.5859C80.3852 37.5859 80.8282 37.8812 81.3204 38.2586ZM82.0586 48.7258C83.0594 48.8242 84.7329 48.7258 85.3563 48.5125C85.6844 48.414 85.7172 48.4797 85.7993 49.6773L85.8813 50.957L84.5032 52.3515L83.1251 53.7461L81.6977 52.3187L80.254 50.875L80.3032 49.6445C80.3524 48.4469 80.3852 48.3976 80.7133 48.5125C80.9102 48.5781 81.5172 48.6765 82.0586 48.7258Z" fill="#02D1AC"/>
<path d="M135.871 25.4453C132.738 25.9703 130.244 28.2015 129.489 31.1219C129.194 32.2703 129.128 35.9453 129.391 36.4375C129.473 36.6015 129.768 36.8148 130.047 36.8969C130.539 37.0773 130.539 37.0937 130.539 38.275C130.555 40.3914 131.163 42.0484 132.491 43.525L133.197 44.3125L133.131 45.4609C133.082 46.5437 133.049 46.6094 132.377 47.2328C131.556 47.9875 131.474 48.5453 132.098 49.1523C132.557 49.6281 132.885 49.6609 133.558 49.3164L134.05 49.0539L135.576 50.5797L137.102 52.1055V60.5219C137.102 66.1492 137.167 69.0531 137.282 69.2664C137.692 70.0539 139.005 69.9883 139.382 69.1515C139.513 68.8562 139.563 66.264 139.563 60.4234V52.1055L141.039 50.6289L142.532 49.1359L146.109 50.9406L149.702 52.7453L148.455 54.0742C147.782 54.7961 147.044 55.7805 146.798 56.289L146.371 57.1914L146.322 63.0484C146.289 67.0844 146.338 69.0203 146.453 69.25C146.88 70.0539 148.176 69.9883 148.57 69.1515C148.684 68.8726 148.75 67.0023 148.75 63.3273C148.75 59.0617 148.799 57.8148 148.98 57.3883C149.111 57.093 149.734 56.3547 150.374 55.7148L151.539 54.5828V61.7523C151.539 66.0508 151.605 69.0695 151.703 69.2336C151.785 69.3976 152.064 69.6273 152.343 69.7258C152.737 69.8898 152.901 69.8898 153.327 69.6765C153.606 69.5289 153.869 69.25 153.918 69.0367C153.967 68.8398 154 65.3453 153.967 61.293L153.918 53.9101L153.475 53.0898C152.688 51.5969 152.064 51.1375 147.897 49.0539C145.666 47.9383 143.91 46.9539 143.763 46.7406C143.582 46.4945 143.5 46.0187 143.5 45.3297C143.5 44.3453 143.533 44.2469 144.156 43.525C145.403 42.114 146.125 40.0961 146.125 37.9961C146.125 37.0445 146.158 36.9297 146.437 36.9297C146.617 36.9297 146.913 36.7328 147.109 36.4703C147.454 36.0437 147.47 35.9125 147.388 33.8125C147.339 32.5 147.191 31.2695 147.044 30.7937C146.305 28.4969 144.402 26.5609 142.056 25.757C140.99 25.3797 137.298 25.1992 135.871 25.4453ZM141.941 28.382C143.779 29.3008 144.78 30.8758 144.927 33.1726L145.026 34.4687H144.534C142.827 34.4687 139.316 33.55 137.118 32.5164C135.559 31.7781 135.379 31.7945 134.28 32.7297C133.935 33.0414 133.197 33.5172 132.672 33.7961L131.688 34.3211V33.2547C131.688 30.6297 133.443 28.4476 135.986 27.9062C136.38 27.8242 137.643 27.775 138.791 27.8078C140.76 27.857 140.957 27.9062 141.941 28.382ZM140.301 36.2406C141.121 36.4375 142.188 36.6508 142.68 36.7164L143.582 36.8476L143.566 38.2586C143.566 39.3906 143.484 39.8172 143.139 40.5719C142.27 42.4586 140.383 43.689 138.332 43.6726C136.642 43.6562 135.297 43.0492 134.247 41.8187C133.345 40.7687 133 39.6695 133 37.832V36.3062L133.541 36.1258C133.82 36.0109 134.46 35.6664 134.952 35.3219L135.838 34.6984L137.331 35.289C138.152 35.6172 139.497 36.0437 140.301 36.2406ZM137.43 46.1008C138.316 46.1992 139.48 46.1172 140.481 45.8711C140.973 45.7562 141.006 45.7726 141.072 46.3469C141.138 46.8883 141.055 47.0195 139.694 48.3648L138.25 49.8086L136.839 48.3812C135.445 47.0031 135.428 46.9539 135.527 46.3633C135.641 45.8055 135.674 45.7726 136.084 45.8711C136.33 45.9367 136.938 46.0351 137.43 46.1008Z" fill="#02D1AC"/>
</svg>
