<svg width="84" height="84" viewBox="0 0 84 84" fill="none" xmlns="http://www.w3.org/2000/svg">
<path d="M39.293 15.1922C35.9461 15.7172 32.9437 17.8664 31.418 20.8523C30.6633 22.3289 30.3516 23.625 30.2367 25.8234C30.1219 28.0219 30.3187 29.0555 31.0078 29.7773C31.4016 30.2039 31.5 30.4828 31.6477 31.7625C31.9594 34.3547 32.7797 36.1594 34.4695 37.9805L35.4375 39.0141V40.2445C35.4375 41.1797 35.3719 41.557 35.1586 41.8195C34.9945 42 33.1734 42.9023 31.0898 43.8211C26.775 45.7242 25.7742 46.3313 24.9211 47.5781C23.6906 49.3664 23.7234 49.1039 23.6578 58.7344C23.625 64.5258 23.6578 67.5445 23.7727 67.9383C24.0844 68.9555 25.4297 69.1687 25.9055 68.2664C26.0203 68.0531 26.0859 65.1328 26.0859 59.4891C26.0859 54.8297 26.1516 51.0234 26.2172 51.0234C26.4141 51.0234 29.6133 54.3211 29.8758 54.7969C30.0562 55.125 30.1219 56.5688 30.1875 61.6547L30.2695 68.1188L30.7453 68.5289C31.2539 68.9719 31.8281 68.9391 32.3695 68.4633C32.632 68.2172 32.6484 67.6758 32.6484 61.6711C32.6484 53.4352 32.8617 54.1898 29.6461 50.9086C27.3656 48.5789 27.3328 48.5461 27.6609 48.2344C27.9562 47.9227 35.1586 44.625 35.5195 44.625C35.6016 44.625 36.8156 45.757 38.1773 47.1188L40.6711 49.6289L40.7203 58.8656L40.7695 68.1188L41.2289 68.5125C41.475 68.7258 41.8359 68.9062 42 68.9062C42.1641 68.9062 42.525 68.7258 42.7711 68.5125L43.2305 68.1188L43.2797 58.8656L43.3289 49.6289L45.8226 47.1188C47.1844 45.757 48.3984 44.625 48.4805 44.625C48.8414 44.625 56.0437 47.9227 56.339 48.2344C56.6672 48.5461 56.6344 48.5789 54.3539 50.9086C51.1383 54.1898 51.3516 53.4352 51.3516 61.6711C51.3516 67.6758 51.368 68.2172 51.6469 68.4633C52.1719 68.9391 52.7461 68.9719 53.2547 68.5289L53.7305 68.1188L53.8125 61.6547C53.8781 56.5688 53.9437 55.125 54.1242 54.7969C54.3867 54.3211 57.5859 51.0234 57.7828 51.0234C57.8484 51.0234 57.914 54.8297 57.914 59.4891C57.914 65.1328 57.9797 68.0531 58.0945 68.2664C58.5703 69.1687 59.9156 68.9555 60.2273 67.9383C60.3422 67.5445 60.375 64.5258 60.3422 58.7344C60.2765 49.1039 60.3094 49.3664 59.0789 47.5781C58.2258 46.3313 57.225 45.7242 52.9101 43.8211C50.843 42.9023 49.0055 42 48.8578 41.8195C48.6281 41.557 48.5625 41.1797 48.5625 40.2445V39.0141L49.5961 37.8984C50.7445 36.6516 51.6961 34.9453 52.0898 33.3867C52.2375 32.8453 52.3851 31.4016 52.4508 30.1875C52.5328 28.2844 52.5984 27.9398 52.8609 27.7594C53.4516 27.3328 53.7141 26.5617 53.6976 25.2656C53.632 21.5086 51.368 17.9484 47.9719 16.2586C46.1836 15.3727 45.4125 15.225 42.4922 15.1758C40.9992 15.143 39.5719 15.1594 39.293 15.1922ZM45.8391 18.0305C48.9234 19.1297 50.843 21.6234 51.2695 25.0359L51.3844 25.8891L49.9406 26.0859C48.218 26.332 44.7726 26.2172 43.5422 25.8727C42.1805 25.4953 40.6711 24.7406 39.5391 23.8875C38.8664 23.3789 38.3086 23.0836 38.0297 23.0836C37.3734 23.0836 36.9141 23.5594 36.9141 24.2484C36.9141 24.7406 37.0453 24.9539 37.7508 25.6102C38.7351 26.5125 41.0812 27.7266 42.8203 28.2352C43.8047 28.5141 44.625 28.5961 47.0039 28.6617L49.957 28.7273L49.9406 30.4336C49.8914 33.0586 49.2187 34.7813 47.5781 36.4219C45.9867 38.0133 44.2641 38.7188 42 38.7188C39.7359 38.7188 38.0133 38.0133 36.4219 36.4219C35.0437 35.0438 34.2727 33.3867 34.043 31.2867C33.9445 30.3516 33.9445 30.3516 34.4695 30.0563C34.7484 29.9086 35.3391 29.4984 35.782 29.1539C36.4711 28.6289 36.5859 28.4648 36.5859 27.9727C36.5859 27.2672 36.1102 26.7422 35.4867 26.7422C35.2242 26.7422 34.6008 27.0211 34.0594 27.3984C32.5828 28.3992 32.5828 28.3992 32.6977 26.1188C32.7469 25.0688 32.9109 23.7891 33.0586 23.2969C33.7969 20.8523 35.8805 18.7523 38.3086 17.9977C39.5883 17.5875 39.7851 17.5711 42.4101 17.6367C44.4117 17.6695 45.0516 17.7352 45.8391 18.0305ZM39.2437 40.8516C40.0476 41.0813 40.9336 41.1797 42 41.1797C43.0664 41.1797 43.9523 41.0813 44.7562 40.8516C45.3961 40.6711 45.9703 40.5234 46.0195 40.5234C46.0687 40.5234 46.1016 40.8023 46.1016 41.1633C46.1016 41.5078 46.2 42.0492 46.3312 42.3609L46.5773 42.9188L44.2805 45.2156L42 47.4961L39.7195 45.2156L37.4226 42.9188L37.6687 42.3609C37.8 42.0492 37.8984 41.5078 37.8984 41.1633C37.8984 40.8023 37.9312 40.5234 37.9805 40.5234C38.0297 40.5234 38.6039 40.6711 39.2437 40.8516Z" fill="#02D1AC"/>
<path d="M12.0258 21.8203C10.4672 22.1484 9.10552 23.2476 8.38364 24.7734C8.03911 25.5117 7.95708 25.9383 7.95708 27.0703L7.94068 28.4648L6.71021 29.6953C4.57739 31.8445 3.93755 33.6328 3.93755 37.4062C3.93755 41.1633 4.57739 42.968 6.67739 45.1008L7.87505 46.2984V47.8078C7.87505 48.907 7.80943 49.4156 7.61255 49.6781C7.4813 49.875 6.20161 50.6297 4.79067 51.3515C1.91958 52.7953 1.1813 53.4023 0.508643 54.7969L0.0820801 55.6992L0.0328614 61.6875C4.88563e-05 64.9851 0.0328614 67.8398 0.0820801 68.0367C0.131299 68.25 0.393799 68.5289 0.672705 68.6765C1.09927 68.8898 1.26333 68.8898 1.65708 68.7258C1.93599 68.6273 2.21489 68.3976 2.29692 68.2336C2.39536 68.0695 2.46099 65.7562 2.46099 62.7211V57.5203L3.62583 58.6523C4.26567 59.2922 4.88911 60.0305 5.02036 60.3258C5.20083 60.7195 5.25005 61.7203 5.25005 64.2961C5.25005 66.5109 5.31567 67.889 5.43052 68.1515C5.80786 68.9883 7.12036 69.0539 7.53052 68.2664C7.64536 68.0695 7.71099 66.5437 7.71099 64.2469C7.71099 59.3906 7.69458 59.3578 5.20083 56.7984C4.10161 55.6992 3.44536 54.8953 3.5438 54.8133C3.62583 54.7476 4.8563 54.0914 6.26724 53.3695L8.84302 52.057L10.3196 53.55L11.8126 55.0429V61.3922C11.8126 65.7562 11.8782 67.8726 11.993 68.1515C12.3704 68.9883 13.6829 69.0539 14.093 68.2664C14.2079 68.0531 14.2735 65.7234 14.2735 61.4906V55.0429L15.7665 53.55L17.2594 52.0406L18.4735 52.6148C19.5727 53.1398 19.704 53.1726 20.1305 52.9594C20.3766 52.8445 20.6555 52.5492 20.7376 52.3195C21.0001 51.5484 20.754 51.1219 19.6547 50.5148C19.0969 50.2031 18.5391 49.7765 18.4243 49.5469C18.3094 49.3172 18.211 48.5461 18.211 47.7586V46.3969L19.343 45.2812C20.1633 44.4609 20.6719 43.7719 21.1313 42.8367C22.0501 40.9992 22.1977 40.1625 22.1157 36.8484C22.0501 34.207 22.0172 33.9773 21.5743 32.8453C21.0001 31.4179 19.7696 29.7281 18.7852 29.0226L18.0797 28.514L18.1618 27.3164C18.2766 25.8398 17.9485 24.7734 17.0626 23.6414C15.9633 22.2469 13.7813 21.4594 12.0258 21.8203ZM14.5196 24.6094C15.1594 25.0031 15.7501 26.0531 15.7501 26.7914V27.3656L15.0774 27.2179C14.1586 27.0047 12.7805 26.9719 11.4516 27.1359L10.336 27.2672V26.8242C10.336 25.8398 11.2711 24.5929 12.2391 24.2812C12.879 24.0844 13.8961 24.232 14.5196 24.6094ZM14.9297 29.7281C15.7336 29.9742 16.8985 30.5976 17.4235 31.057C18.7196 32.2547 19.6876 34.2726 19.6876 35.8476C19.6876 36.6351 19.6547 36.6515 17.9977 36.8484C16.029 37.0781 13.6008 36.1594 11.9274 34.5351C10.7133 33.3539 10.2376 33.3211 9.00708 34.3711C8.17036 35.0765 6.57896 35.9953 6.4313 35.864C6.39849 35.8148 6.44771 35.3883 6.56255 34.8797C7.36646 30.9914 11.2219 28.6289 14.9297 29.7281ZM11.3204 37.2586C13.0594 38.5547 14.6344 39.1453 16.8165 39.3094C17.5383 39.3586 18.4571 39.3258 18.8672 39.2437C19.261 39.1453 19.6219 39.0961 19.6711 39.1453C19.8188 39.2765 19.3266 41.032 18.9329 41.7867C17.768 43.9851 15.5532 45.2976 13.043 45.2976C9.61411 45.2812 6.92349 42.8367 6.48052 39.3586L6.36567 38.4562L7.25161 38.1773C7.7438 38.0297 8.61333 37.6031 9.18755 37.2586C9.77818 36.8976 10.2868 36.6023 10.336 36.5859C10.3852 36.5859 10.8282 36.8812 11.3204 37.2586ZM12.0586 47.7258C13.0594 47.8242 14.7329 47.7258 15.3563 47.5125C15.6844 47.414 15.7172 47.4797 15.7993 48.6773L15.8813 49.957L14.5032 51.3515L13.1251 52.7461L11.6977 51.3187L10.254 49.875L10.3032 48.6445C10.3524 47.4469 10.3852 47.3976 10.7133 47.5125C10.9102 47.5781 11.5172 47.6765 12.0586 47.7258Z" fill="#02D1AC"/>
<path d="M65.8711 24.4453C62.7375 24.9703 60.2438 27.2015 59.4891 30.1219C59.1938 31.2703 59.1281 34.9453 59.3906 35.4375C59.4727 35.6015 59.768 35.8148 60.0469 35.8969C60.5391 36.0773 60.5391 36.0937 60.5391 37.275C60.5555 39.3914 61.1625 41.0484 62.4914 42.525L63.1969 43.3125L63.1313 44.4609C63.082 45.5437 63.0492 45.6094 62.3766 46.2328C61.5563 46.9875 61.4742 47.5453 62.0977 48.1523C62.557 48.6281 62.8852 48.6609 63.5578 48.3164L64.05 48.0539L65.5758 49.5797L67.1016 51.1055V59.5219C67.1016 65.1492 67.1672 68.0531 67.282 68.2664C67.6922 69.0539 69.0047 68.9883 69.382 68.1515C69.5133 67.8562 69.5625 65.264 69.5625 59.4234V51.1055L71.0391 49.6289L72.532 48.1359L76.1086 49.9406L79.7016 51.7453L78.4547 53.0742C77.782 53.7961 77.0438 54.7805 76.7977 55.289L76.3711 56.1914L76.3219 62.0484C76.2891 66.0844 76.3383 68.0203 76.4531 68.25C76.8797 69.0539 78.1758 68.9883 78.5695 68.1515C78.6844 67.8726 78.75 66.0023 78.75 62.3273C78.75 58.0617 78.7992 56.8148 78.9797 56.3883C79.111 56.093 79.7344 55.3547 80.3742 54.7148L81.5391 53.5828V60.7523C81.5391 65.0508 81.6047 68.0695 81.7031 68.2336C81.7852 68.3976 82.0641 68.6273 82.343 68.7258C82.7367 68.8898 82.9008 68.8898 83.3274 68.6765C83.6063 68.5289 83.8688 68.25 83.918 68.0367C83.9672 67.8398 84 64.3453 83.9672 60.293L83.918 52.9101L83.475 52.0898C82.6875 50.5969 82.0641 50.1375 77.8969 48.0539C75.6656 46.9383 73.9102 45.9539 73.7625 45.7406C73.582 45.4945 73.5 45.0187 73.5 44.3297C73.5 43.3453 73.5328 43.2469 74.1563 42.525C75.4031 41.114 76.125 39.0961 76.125 36.9961C76.125 36.0445 76.1578 35.9297 76.4367 35.9297C76.6172 35.9297 76.9125 35.7328 77.1094 35.4703C77.4539 35.0437 77.4703 34.9125 77.3883 32.8125C77.3391 31.5 77.1914 30.2695 77.0438 29.7937C76.3055 27.4969 74.4024 25.5609 72.0563 24.757C70.9899 24.3797 67.2985 24.1992 65.8711 24.4453ZM71.9414 27.382C73.7789 28.3008 74.7797 29.8758 74.9274 32.1726L75.0258 33.4687H74.5336C72.8274 33.4687 69.3164 32.55 67.118 31.5164C65.5594 30.7781 65.3789 30.7945 64.2797 31.7297C63.9352 32.0414 63.1969 32.5172 62.6719 32.7961L61.6875 33.3211V32.2547C61.6875 29.6297 63.443 27.4476 65.986 26.9062C66.3797 26.8242 67.643 26.775 68.7914 26.8078C70.7602 26.857 70.957 26.9062 71.9414 27.382ZM70.3008 35.2406C71.1211 35.4375 72.1875 35.6508 72.6797 35.7164L73.582 35.8476L73.5656 37.2586C73.5656 38.3906 73.4836 38.8172 73.1391 39.5719C72.2695 41.4586 70.3828 42.689 68.332 42.6726C66.6422 42.6562 65.2969 42.0492 64.2469 40.8187C63.3445 39.7687 63 38.6695 63 36.832V35.3062L63.5414 35.1258C63.8203 35.0109 64.4602 34.6664 64.9524 34.3219L65.8383 33.6984L67.3313 34.289C68.1516 34.6172 69.4969 35.0437 70.3008 35.2406ZM67.4297 45.1008C68.3156 45.1992 69.4805 45.1172 70.4813 44.8711C70.9735 44.7562 71.0063 44.7726 71.0719 45.3469C71.1375 45.8883 71.0555 46.0195 69.6938 47.3648L68.25 48.8086L66.8391 47.3812C65.4445 46.0031 65.4281 45.9539 65.5266 45.3633C65.6414 44.8055 65.6742 44.7726 66.0844 44.8711C66.3305 44.9367 66.9375 45.0351 67.4297 45.1008Z" fill="#02D1AC"/>
</svg>
